PathFileType	4	(X/Y/Z)	C:/Users/beibeiliu/ov580/test_trc/User1\sequence.12_training_dense_left.trc
DataRate	CameraRate	NumFrames	NumMarkers	Units	OrigDataRate	OrigDataStartFrame	OrigNumFrames
120	120	22	19	mm	120	1	58
Frame#	Time	ThumbCMC			ThumbMCP			ThumbIP			ThumbTip			IndexMCP			IndexPIP			IndexTip			MiddleMCP			MiddlePIP			MiddleTip			RingMCP			RingPIP			RingTip			PinkyMCP			PinkyPIP			PinkyTip			BackHand1			BackHand2			BackHand3	
		X0	Y0	Z0	X1	Y1	Z1	X2	Y2	Z2	X3	Y3	Z3	X4	Y4	Z4	X5	Y5	Z5	X6	Y6	Z6	X7	Y7	Z7	X8	Y8	Z8	X9	Y9	Z9	X10	Y10	Z10	X11	Y11	Z11	X12	Y12	Z12	X13	Y13	Z13	X14	Y14	Z14	X15	Y15	Z15	X16	Y16	Z16	X17	Y17	Z17	X18	Y18	Z18	
0	0	-111.396	21.7279	132.76	-88.5365	4.90135	111.715	-72.7135	-3.14792	87.7121	-65.2142	-16.7534	63.0224	-116.33	28.7483	44.9312	-106.165	14.754	21.6897	-96.4552	-11.8838	2.27031	-141.747	25.1568	33.1159	-134.829	13.0547	5.23216	-126.867	-8.75649	-17.9942	-159.733	10.7073	34.1617	-153.542	-2.17524	11.0417	-143.835	-24.8774	-4.24463	-180.95	-9.48395	49.2969	-172.179	-23.1933	33.6281	-149.173	-40.4933	22.8928	-175.512	27.5576	91.4634	-183.533	27.3734	130.142	-148.038	40.6426	114.73	
1	0.00833333	-113.441	20.5726	130.305	-88.4898	5.7028	110.752	-78.7685	-3.28022	86.9315	-66.8562	-16.796	64.0607	-117.332	28.4213	43.4585	-107.565	12.4386	17.7085	-99.2268	-13.6236	1.92525	-141.681	25.4386	30.7693	-135.895	15.43	7.10128	-128.434	-8.14203	-18.4665	-165.475	10.4617	34.9904	-153.584	-1.67439	10.9656	-142.938	-26.8177	-8.2318	-180.975	-6.54972	52.7893	-170.348	-26.5917	30.8633	-152.907	-41.6236	20.9886	-178.689	25.5503	94.6198	-183.286	28.8709	127.564	-147.35	39.8556	113.129	
2	0.0166667	-114.454	19.7669	132.681	-91.0723	5.60927	113.749	-75.3788	-3.17926	84.9133	-68.7333	-15.1088	68.7769	-111.931	28.466	41.8868	-108.635	13.8899	20.1491	-97.2516	-8.42695	4.72648	-145.159	26.2718	34.0848	-136.259	15.2073	6.69572	-126.785	-4.69503	-16.8452	-161.923	13.594	38.0577	-152.967	-3.68464	8.21388	-145.024	-25.4931	-7.44508	-182.432	-6.39807	51.0224	-171.964	-24.6828	32.1382	-151.747	-40.8207	24.1278	-179.897	26.2414	94.4375	-182.629	27.5325	127.814	-149.656	38.7807	116.137	
3	0.025	-110.53	21.6669	128.949	-91.2564	5.87318	110.685	-77.176	-2.67758	86.7564	-67.5871	-15.0884	69.7325	-114.684	28.258	42.2943	-103.698	13.9477	18.1984	-102.63	-9.1349	5.107	-142.946	27.7942	36.0482	-135.736	15.1888	5.07222	-128.786	-4.94032	-17.5931	-160.885	13.8212	35.8976	-154.321	-1.98726	9.0065	-145.089	-19.3871	-4.9048	-178.67	-3.527	53.6078	-168.275	-20.5621	32.2373	-150.155	-40.3843	23.4872	-177.192	26.2701	92.2114	-185.931	27.1205	126.334	-147.73	40.2914	113.755	
4	0.0333333	-115.098	19.6837	131.978	-89.8496	5.79509	108.556	-75.3101	-2.95764	87.2445	-67.6991	-16.354	65.2402	-113.254	31.9522	46.0605	-107.044	18.4301	21.5391	-98.306	-4.95597	5.00136	-140.336	29.6525	31.2545	-132.8	17.064	4.19061	-127.701	1.21635	-17.0119	-165.059	12.1866	36.8497	-152.878	0.042016	7.95547	-145.1	-20.8607	-8.25316	-181.86	-6.79813	50.989	-166.717	-19.2209	33.993	-146.512	-41.4211	28.1071	-178.434	27.273	93.3776	-180.504	29.11	126.618	-148.192	39.1259	114.209	
5	0.0416667	-114.438	20.7525	128.006	-92.2732	5.83957	106.988	-81.9407	-2.77384	79.3804	-77.1831	-18.0156	57.6655	-113.689	36.6036	48.4566	-109.002	19.8519	19.2818	-99.1251	0.605772	5.17538	-145.375	32.1898	33.2701	-136.511	25.8719	6.99923	-132.72	9.75931	-19.0858	-166.218	15.9522	37.2573	-156.781	4.96387	7.86131	-149.098	-10.7548	-8.66608	-180.145	-2.61826	51.0953	-166.054	-17.0938	34.7631	-143.869	-39.8169	38.1849	-176.37	28.766	98.3839	-183.298	27.0191	129.146	-146.234	41.1401	117.572	
6	0.05	-113.217	23.1319	127.551	-92.5839	6.16957	100.708	-91.4901	-4.32311	76.3136	-97.2319	-17.2639	51.6758	-117.171	42.3123	44.1623	-107.208	33.021	23.6184	-100.437	10.712	4.20914	-148.076	40.8655	33.7993	-139.519	38.9078	10.2165	-134.558	29.0831	-21.8905	-163.473	25.4456	39.9422	-158.005	16.9138	9.9916	-146.88	4.48586	-14.7993	-180.58	-1.2202	49.2844	-159.587	-20.1254	35.977	-137.835	-34.7609	49.3552	-175.699	30.0646	98.8677	-185.934	27.022	130.601	-151.629	44.1713	119.533	
7	0.0583333	-115.783	26.9361	130.605	-95.2857	9.30596	98.5886	-97.8602	-0.722569	65.8497	-112.756	-16.647	46.5514	-118.315	51.2705	45.5492	-105.364	40.515	20.5427	-99.9968	22.9067	2.6268	-148.703	48.1024	34.3196	-142.67	47.1049	9.51613	-133.724	43.2359	-24.2265	-163.391	29.7283	37.5281	-159.426	21.3893	8.17813	-149.258	12.6496	-13.5646	-174.68	-3.40696	45.6397	-152.574	-18.4349	40.5212	-130.294	-25.8003	66.7411	-182.05	29.4508	96.0233	-187.248	27.223	127.087	-152.634	49.6323	118.881	
8	0.0666667	-119.11	36.1302	126.234	-97.6457	18.133	95.4575	-102.61	4.17045	69.8856	-120.316	-15.0212	52.291	-122.914	53.6816	44.9272	-108.497	43.5996	18.272	-93.2675	30.5574	-0.988004	-150.337	44.1372	34.3138	-143.905	39.9053	2.97894	-134.754	36.155	-23.9907	-160.701	21.073	33.3529	-152.227	13.7284	7.68298	-136.062	6.8656	-14.9054	-164.701	-12.6939	51.2514	-136.043	-23.0528	51.2942	-121.027	-17.2632	82.277	-179.423	25.1992	91.2932	-189.107	21.7238	126.156	-159.098	48.4913	114.965	
9	0.075	-130.987	52.3596	122.057	-97.2154	39.2839	93.5829	-93.8928	19.2036	71.6512	-106.471	-8.03577	64.6794	-130.794	50.3115	36.2479	-118.855	40.0954	16.7891	-102.333	29.8196	-4.00928	-148.281	29.2173	26.6725	-137.82	24.3054	2.28251	-126.36	15.2249	-22.9381	-148.358	7.02381	32.7183	-137.482	-4.90176	12.4661	-117.554	-10.276	-6.63787	-141.528	-18.642	60.4866	-111.056	-18.7179	71.6185	-113.472	0.75651	96.2845	-178.003	10.8944	88.5785	-187.929	14.8288	118.684	-169.663	48.4924	106.502	
10	0.0833333	-151.787	68.2669	107.345	-115.037	64.2166	85.8044	-100.191	40.5176	69.7737	-95.7458	8.88017	69.8891	-142.44	39.9361	27.9379	-127.784	36.4056	8.53552	-108.452	25.9019	-11.3902	-143.107	13.3686	24.1471	-129.403	9.61192	4.4774	-112.2	-1.67774	-17.6224	-132.639	-8.00335	41.5896	-115.294	-11.5719	21.8877	-94.2593	-12.2053	2.89199	-119.519	-12.7072	70.6457	-95.207	4.99102	81.1434	-111.884	23.0761	101.18	-169.283	0.779815	90.4686	-181.926	7.22237	117.565	-182.205	38.1451	95.8501	
11	0.0916667	-171.833	71.3141	103.225	-135.244	84.2945	78.3588	-112.008	65.8317	64.9557	-99.2984	38.7036	70.7699	-155.778	41.0818	22.5009	-140.978	38.367	0.760922	-124.784	32.8931	-15.5161	-144.608	15.566	26.1223	-126.853	11.4328	2.77024	-106.28	7.99686	-21.1526	-126.377	2.73046	44.5695	-107.989	4.89573	24.0208	-87.3629	4.72152	9.1949	-109.431	8.47111	68.4249	-96.7146	29.8046	76.4428	-117.716	43.2193	101.266	-164.38	1.58289	89.2668	-178.953	4.81079	120.275	-188.399	36.1149	90.6488	
12	0.1	-183.343	76.9738	99.9582	-151.55	92.813	79.9324	-125.003	83.9531	63.1632	-105.156	58.7906	64.7873	-170.509	53.7797	20.3104	-160.399	54.5449	-1.91913	-145.627	51.6238	-20.3782	-152.856	31.9733	20.9638	-135.619	31.1848	-2.57686	-118.603	30.6355	-23.0338	-129.646	18.8473	39.1946	-113.727	26.9164	15.8787	-95.0519	30.4327	1.16515	-115.066	21.6613	65.6171	-102.51	47.9461	69.9393	-126.001	57.5955	96.1769	-166.523	15.7622	85.0849	-180.541	13.6915	120.348	-194.226	39.9045	93.9405	
13	0.108333	-182.582	89.9119	110.596	-151.006	103.738	81.1006	-130.59	88.9441	60.5129	-114.897	60.3877	60.3077	-183.008	69.3125	28.1692	-177.24	71.5835	3.47919	-164.468	71.5441	-24.0825	-168.985	47.3104	18.5544	-157.332	50.6029	-5.98163	-143.012	51.6521	-28.7793	-147.683	33.4832	30.9074	-134.123	37.3807	11.8421	-117.87	43.2193	-7.47063	-129.678	31.8847	53.0932	-112.05	52.8734	64.3495	-129.496	58.8288	89.9652	-176.514	26.4995	83.7368	-188.299	21.9863	116.839	-202.484	52.3292	99.5666	
14	0.116667	-166.197	93.3125	117.433	-135.736	95.6997	87.3419	-125.977	77.8293	60.9395	-127.041	45.8995	55.5977	-183.01	85.3156	32.1287	-178.249	86.3346	8.48973	-169.633	85.4619	-18.0471	-183.941	63.1569	25.3827	-175.799	64.3806	-2.96164	-162.091	60.409	-34.5457	-172.325	39.3802	29.9619	-160.994	39.5714	4.32014	-146.57	42.1271	-14.7203	-151.909	22.0242	46.3105	-126.264	33.3295	49.3	-131.405	41.6437	85.7521	-192.33	32.4652	87.6512	-197.425	33.5897	118.701	-199.982	67.3818	104.253	
15	0.125	-138.071	68.0875	122.645	-117.241	57.7793	87.161	-123.625	44.7218	55.9526	-140.073	21.419	48.6522	-155.254	91.5764	42.0558	-149.794	94.5194	17.287	-149.308	90.1774	-12.7317	-175.714	73.9036	31.7517	-167.142	78.4984	0.311255	-162.652	74.5862	-26.8394	-184.04	50.8179	33.1591	-176.137	51.9393	6.45092	-167.22	46.9058	-18.5906	-180.524	22.03	42.2107	-152.363	16.1809	37.9739	-141.834	16.8902	70.5501	-195.769	48.7157	87.7276	-201.678	44.5986	121.841	-180.336	77.3185	110.051	
16	0.133333	-126.674	39.5307	124.251	-114.193	24.2918	82.8932	-127.251	16.6858	57.6381	-156.474	6.84954	45.9401	-135.346	72.9572	46.1185	-130.962	72.6274	16.6187	-129.712	72.7319	-7.32994	-162.573	66.1473	35.585	-157.127	67.3962	5.05196	-153.852	65.8352	-23.0328	-177.663	52.1629	35.0299	-177.832	50.6038	6.81846	-173.42	47.423	-20.1415	-190.276	24.8785	43.6999	-171.78	7.54614	33.7907	-155.766	-2.25373	60.2227	-190.751	50.9525	95.7934	-194.211	49.9429	124.697	-162.603	66.7575	113.05	
17	0.141667	-123.229	21.0909	121.406	-118.172	0.300783	86.6935	-133.189	-3.63407	58.7956	-163.206	-6.38195	45.7057	-123.219	52.8037	44.8947	-122.435	48.4555	14.7229	-121.056	44.869	-8.7473	-152.959	54.4127	30.3691	-147.621	51.5038	6.00774	-148.764	48.2996	-27.2608	-178	46.2015	34.9619	-177.357	44.7585	10.9318	-170.935	40.7676	-16.1228	-194.202	26.0138	48.5333	-183	-0.345416	35.0739	-167.507	-13.9468	55.8153	-182.243	51.3537	94.9176	-188.783	49.1744	125.83	-153.683	55.6738	114.559	
18	0.15	-123.162	13.6978	120.639	-121.332	-10.0473	90.0915	-138.225	-15.9602	58.4507	-165.741	-14.9785	52.9829	-122.835	35.368	42.8227	-118.813	27.918	15.5746	-121.62	19.1255	-10.1344	-150.208	40.785	31.1701	-148.762	32.3636	0.74026	-148.405	26.0378	-22.5582	-177.154	36.3447	35.9426	-178.604	31.2225	7.76787	-175.112	25.258	-18.7093	-197.095	17.7587	49.6522	-185.485	-9.01233	38.9144	-169.903	-22.7371	59.0305	-179.417	46.3969	95.1342	-186.586	49.251	127.523	-151.539	47.6653	113.078	
19	0.158333	-125.732	14.6255	123.845	-115.343	-13.6285	93.9147	-131.659	-22.5573	67.6837	-160.599	-28.0763	56.3687	-122.34	24.7313	37.6609	-117.254	14.8344	19.4354	-116.415	1.27103	-6.34326	-148.09	25.3125	26.5534	-140.087	14.0529	4.57364	-141.388	1.89355	-21.0719	-175.9	18.8369	30.5216	-171.983	11.073	10.0829	-168.457	0.037453	-16.4926	-195.976	3.09295	50.9772	-183.341	-24.9309	43.8484	-166.321	-33.6415	71.1342	-181.043	41.3655	88.5153	-187.164	43.2165	125.16	-147.986	46.8569	111.789	
20	0.166667	-128.181	27.5218	128.16	-107.036	0.529564	98.6668	-117.452	-16.8526	72.9184	-144.604	-31.9862	64.5275	-121.521	28.0732	43.3659	-112.54	14.3553	18.3568	-106.115	1.07162	-4.11255	-145.12	16.0236	30.3882	-130.061	5.20376	8.74699	-123.25	-12.0762	-16.7241	-165.879	2.503	34.7337	-157.103	-11.1821	8.9208	-146.168	-22.6038	-7.48613	-180.264	-17.9515	54.7554	-159.627	-39.5134	58.6626	-145.041	-30.4978	86.5853	-183.09	27.9653	86.2263	-192.097	35.6009	116.394	-158.895	47.6997	103.502	
21	0.175	-136.804	52.9268	121.206	-105.304	34.5261	105.081	-101.628	10.0842	80.6114	-114.278	-15.1844	76.5432	-125.95	40.6257	39.1998	-112.527	33.9002	19.0721	-101.501	21.9277	-0.99717	-133.854	19.5514	28.6528	-116.838	7.66718	9.98836	-100.013	-3.82276	-7.93869	-146.813	-4.23375	40.0445	-127.012	-15.1621	18.9666	-110.931	-25.7388	5.88501	-146.029	-25.9364	64.3926	-121.428	-27.1952	79.9028	-124.426	-9.99019	103.329	-181.2	16.4411	82.8485	-198.015	22.6697	115.077	-172.367	48.9292	98.9779	
